<mxfile host="app.diagrams.net" modified="2024-01-19T12:36:03.051Z" agent="Mozilla/5.0 (Windows NT 10.0; Win64; x64) AppleWebKit/537.36 (KHTML, like Gecko) Chrome/120.0.0.0 Safari/537.36" etag="AtXzP7ew31tH8zqJhy9d" version="22.1.21" type="github">
  <diagram name="第 1 页" id="bbYQeygtAezf0g9FAJEj">
    <mxGraphModel dx="1434" dy="738" grid="1" gridSize="10" guides="1" tooltips="1" connect="1" arrows="1" fold="1" page="1" pageScale="1" pageWidth="827" pageHeight="1169" math="0" shadow="0">
      <root>
        <mxCell id="0" />
        <mxCell id="1" parent="0" />
        <mxCell id="SBlckvC2XKFD3eRopFiM-1" value="" style="ellipse;whiteSpace=wrap;html=1;" parent="1" vertex="1">
          <mxGeometry x="270" y="140" width="120" height="90" as="geometry" />
        </mxCell>
        <mxCell id="SxaJgx7l5IobOdkKBiRo-1" value="Actor" style="shape=umlActor;verticalLabelPosition=bottom;verticalAlign=top;html=1;outlineConnect=0;" vertex="1" parent="1">
          <mxGeometry x="90" y="140" width="30" height="60" as="geometry" />
        </mxCell>
        <mxCell id="SxaJgx7l5IobOdkKBiRo-2" value="Vertical Container" style="swimlane;whiteSpace=wrap;html=1;" vertex="1" parent="1">
          <mxGeometry x="214" y="320" width="200" height="200" as="geometry" />
        </mxCell>
      </root>
    </mxGraphModel>
  </diagram>
</mxfile>
